**ABCDEFGHIJKLMNOPQRSTUVWXYZabcdefghijklmnopqrstuvwxyz**************************
**PARASOLID !"#$%&'()*+,-./:;<=>?@[\]^_`{|}~0123456789**************************
**PART1;
MC=AMD64;
MC_MODEL=Intel64 Family 6 Model 61 Stepping 4, GenuineIntel;
MC_ID=unknown;
OS=Windows_NT;
OS_RELEASE=unknown;
FRU=Parasolid Version 28.0, build 191,  8-24-2015;
APPL=SOLIDWORKS 2016-2015334;
SITE=;
USER=unknown;
FORMAT=text;
GUISE=transmit;
KEY=168;
FILE=168.x_t;
DATE=Fri Dec 13 23:20:25 2019;
**PART2;
SCH=SCH_2800191_28002;
USFLD_SIZE=0;
**PART3;
**END_OF_HEADER*****************************************************************
T51 : TRANSMIT FILE created by modeller version 280019123 SCH_2800191_28002_1300
6200 0 12 30 CCCCCCCCCCCCCDI5 owner1040 0 CCCCCCCCCA13 boundary_mesh1006 0 A16 i
ndex_map_offset0 0 1 dA9 index_map82 0 A17 node_id_index_map82 0 A20 schema_embe
dding_map82 0 A5 child12 0 A14 lowest_node_id0 0 1 dZ1 334 0 2 0 0 0 0 1e3 1e-8
 0 3 0 1 0 1 1 4 5 6 7 8 9 10 0 0 0 0 0 0 0 70 11 CI9 list_type0 0 1 uI10 notran
smit0 0 1 lCCCDCCDI12 finger_index0 0 1 dI12 finger_block1012 0 CZ2 0 4 T1 0 0 2
 20 1 11 11 13 255 4 214 0 1 0 12 0 0 13 0 50 255 5 203 0 12 14 0 0 +0 0 .1 1 12
24646799147374e-31 0 -1224646799147374e-31 1 0 30 255 6 213 0 9 15 0 0 +12246467
99147374e-33 -.01 .1 0 0 -1 29 255 7 154 0 16 17 0 0 0 0 19 8 CCCCCCCA5 owner12
 0 Z8 64 0 1 13 0 18 V0 16 255 9 173 0 ?19 0 20 6 0 0 1 18 255 10 61 0 21 0 22 2
3 ?1 17 255 21 0 24 25 26 10 27 28 0 29 +18 22 58 0 26 10 30 31 ?1 29 23 63 0 10
 31 32 0 0 .1 29 31 60 0 22 33 23 .587690598923242 0 .1 29 32 163 0 34 23 35 122
4646799147374e-33 -.01 0 18 34 142 0 36 37 0 32 ?1 29 35 162 0 37 32 38 1 -.01 0
 18 37 141 0 39 40 34 35 ?1 29 38 161 0 40 35 41 1 0 0 18 40 140 0 42 43 37 38 ?
1 29 41 160 0 43 38 44 .802309401076759 0 0 18 43 139 0 45 46 40 41 ?1 29 44 159
 0 46 41 47 .8 -.004 0 18 46 138 0 48 49 43 44 ?1 29 47 158 0 49 44 50 .79769059
8923242 0 0 18 49 137 0 51 52 46 47 ?1 29 50 157 0 52 47 53 .592309401076758 0 0
 18 52 136 0 54 55 49 50 ?1 29 53 156 0 55 50 17 .59 -.004 0 18 55 135 0 56 57 5
2 53 ?1 29 17 155 0 57 53 7 .587690598923242 0 0 18 57 134 0 58 16 55 17 ?1 17 5
8 0 59 60 61 57 62 63 0 64 +18 16 133 0 65 66 57 7 ?1 17 65 0 67 29 64 16 68 69
 0 70 +18 66 34 0 71 72 16 73 ?1 17 71 0 74 19 75 66 76 77 0 25 -18 72 37 0 76 7
8 66 79 ?1 29 73 36 0 66 0 79 1224646799147374e-33 -.01 .1 29 79 39 0 72 73 80 1
 -.01 .1 29 80 42 0 78 79 81 1 0 .1 18 78 40 0 82 83 72 80 ?1 29 81 45 0 83 80 8
4 .802309401076759 0 .1 18 83 43 0 85 86 78 81 ?1 29 84 48 0 86 81 87 .8 -.004 .
1 18 86 46 0 88 89 83 84 ?1 29 87 51 0 89 84 90 .797690598923242 0 .1 18 89 49 0
 91 92 86 87 ?1 29 90 54 0 92 87 33 .592309401076758 0 .1 18 92 52 0 93 30 89 90
 ?1 29 33 57 0 30 90 31 .59 -.004 .1 18 30 55 0 94 22 92 33 ?1 17 94 0 24 26 93
 30 95 96 0 97 +15 255 24 3 0 25 98 0 17 26 0 24 21 94 22 99 100 0 60 +17 93 0 2
4 94 91 92 101 102 0 103 +17 95 0 104 105 97 92 94 96 0 0 -16 96 25 0 ?94 100 10
2 106 0 0 1 17 97 0 104 95 56 30 61 107 0 99 -15 104 178 0 56 108 0 17 56 0 104
 97 105 55 109 110 0 61 +17 61 0 59 58 99 55 97 107 0 62 +16 107 166 0 ?61 111 1
12 113 0 0 1 17 99 0 59 61 60 30 26 100 0 0 -15 59 176 0 58 114 0 17 60 0 59 99
 58 22 64 112 0 27 -16 100 28 0 ?26 28 96 115 0 0 1 16 28 31 0 ?21 116 100 117 0
 0 1 30 115 29 0 100 106 117 0 +.587690598923242 0 .1 -.5 .866025403784441 0 30
 106 26 0 96 118 115 0 +.59 -.004 .1 -.5 -.866025403784441 0 30 117 32 0 28 115
 119 0 +0 0 .1 -1 0 0 30 119 153 0 120 117 121 0 +0 0 0 1224646799147374e-31 -1
 0 16 120 129 0 ?122 123 0 119 0 0 1 30 121 152 0 123 119 124 0 +122464679914737
4e-33 -.01 0 1 693889390390723e-32 0 16 123 125 0 ?39 125 120 121 0 0 1 30 124 1
51 0 125 121 126 0 +1 0 0 0 1 0 16 125 121 0 ?42 127 123 124 0 0 1 30 126 150 0
 127 124 128 0 +.802309401076759 0 0 -1 0 0 16 127 117 0 ?45 129 125 126 0 0 1 3
0 128 149 0 129 126 130 0 +.8 -.004 0 -.5 -.866025403784441 0 16 129 113 0 ?48 1
31 127 128 0 0 1 30 130 148 0 131 128 132 0 +.797690598923242 0 0 -.5 .866025403
784441 0 16 131 109 0 ?51 133 129 130 0 0 1 30 132 147 0 133 130 134 0 +.5923094
01076758 0 0 -1 0 0 16 133 105 0 ?54 110 131 132 0 0 1 30 134 146 0 110 132 135
 0 +.59 -.004 0 -.5 -.866025403784441 0 16 110 101 0 ?56 63 133 134 0 0 1 30 135
 145 0 63 134 136 0 +.587690598923242 0 0 -.5 .866025403784441 0 16 63 97 0 ?58
 69 110 135 0 0 1 30 136 144 0 69 135 137 0 +0 0 0 -1 0 0 16 69 93 0 ?65 138 63
 136 0 0 1 30 137 204 0 116 136 139 0 +0 0 .1 0 0 -1 16 116 164 0 ?70 112 28 137
 0 0 1 30 139 205 0 112 137 113 0 +.587690598923242 0 .1 0 0 -1 16 112 165 0 ?64
 107 116 139 0 0 1 30 113 206 0 107 139 140 0 +.59 -.004 .1 0 0 -1 30 140 207 0
 111 113 141 0 +.592309401076758 0 .1 0 0 -1 16 111 167 0 ?105 142 107 140 0 0 1
 30 141 208 0 142 140 143 0 +.797690598923242 0 .1 0 0 -1 16 142 168 0 ?144 145
 111 141 0 0 1 30 143 209 0 145 141 146 0 +.8 -.004 .1 0 0 -1 16 145 169 0 ?147
 148 142 143 0 0 1 30 146 210 0 148 143 149 0 +.802309401076759 0 .1 0 0 -1 16 1
48 170 0 ?150 151 145 146 0 0 1 30 149 211 0 151 146 15 0 +1 0 .1 0 0 -1 16 151
 171 0 ?152 20 148 149 0 0 1 30 15 212 0 20 149 6 0 +1 -.01 .1 0 0 -1 16 20 172
 0 ?153 9 151 15 0 0 1 17 153 0 154 42 155 37 75 20 0 156 +15 154 188 0 42 157 0
 17 42 0 154 158 153 40 156 125 0 152 +17 155 0 154 153 158 72 82 159 0 0 -17 75
 0 74 71 39 72 153 20 0 155 -17 156 0 160 36 161 37 42 125 0 0 -15 160 92 0 162
 163 0 17 36 0 160 162 156 34 39 123 0 19 -17 161 0 160 156 164 40 45 127 0 0 -1
7 164 0 160 161 165 43 48 129 0 0 -17 45 0 166 167 152 43 161 127 0 150 +15 166
 186 0 45 168 0 17 167 0 166 169 45 83 150 148 0 170 -17 152 0 166 45 169 40 158
 151 0 161 +17 150 0 171 48 170 43 167 148 0 164 +15 171 184 0 48 172 0 17 48 0
 171 173 150 46 164 129 0 147 +17 170 0 171 150 173 83 88 174 0 0 -17 173 0 171
 170 48 86 147 145 0 175 -17 88 0 24 91 85 86 170 174 0 173 +16 174 16 0 ?88 176
 177 178 0 0 1 16 176 19 0 ?91 102 174 179 0 0 1 16 177 13 0 ?85 174 159 180 0 0
 1 30 178 17 0 174 180 179 0 +.8 -.004 .1 -.5 -.866025403784441 0 30 180 14 0 17
7 181 178 0 +.802309401076759 0 .1 -1 0 0 30 179 20 0 176 178 118 0 +.7976905989
23242 0 .1 -.5 .866025403784441 0 30 118 23 0 102 179 106 0 +.592309401076758 0
 .1 -1 0 0 16 102 22 0 ?93 96 176 118 0 0 1 30 181 11 0 159 182 180 0 +1 0 .1 0
 1 0 16 159 10 0 ?82 177 77 181 0 0 1 30 182 8 0 77 183 181 0 +1224646799147374e
-33 -.01 .1 1 693889390390723e-32 0 16 77 7 0 ?76 159 138 182 0 0 1 30 183 5 0 1
38 0 182 0 +0 0 .1 1224646799147374e-31 -1 0 16 138 4 0 ?25 77 69 183 0 0 1 17 2
5 0 24 76 21 66 184 138 0 185 +17 76 0 24 82 25 72 71 77 0 75 +17 184 0 186 70 1
85 10 25 138 0 0 -17 185 0 186 184 122 66 19 9 0 0 -15 186 192 0 122 12 0 17 122
 0 186 185 70 34 162 120 0 0 +17 19 0 74 39 71 34 185 9 0 122 +15 74 190 0 39 18
7 0 17 39 0 74 75 19 37 36 123 0 153 +14 255 187 191 188 ?157 12 74 4 14 -0 0 15
7 12 18 81 255 1 188 323 189 187 190 0 0 191 192 14 157 189 191 ?168 187 154 4 1
93 -0 0 168 187 18 14 12 193 194 ?187 0 186 4 5 -0 0 187 0 18 50 14 202 0 187 19
3 5 0 +1224646799147374e-33 -.01 .1 -693889390390723e-32 1 0 -1 -693889390390723
e-32 0 13 18 65 0 0 0 0 0 0 8 12 50 193 201 0 157 195 14 0 +1 0 .1 -1 0 0 0 0 1
 50 195 200 0 168 196 193 0 +.802309401076759 0 .1 0 -1 0 0 0 -1 14 168 187 197
 ?172 157 166 4 195 -0 0 172 157 18 50 196 199 0 172 198 195 0 +.8 -.004 .1 .866
025403784441 -.5 0 .5 .866025403784441 0 14 172 185 199 ?200 168 171 4 196 -0 0
 200 168 18 50 198 198 0 200 201 196 0 +.797690598923242 0 .1 -.866025403784441
 -.5 0 .5 -.866025403784441 0 14 200 183 202 ?203 172 204 4 198 -0 0 203 172 18
 50 201 197 0 203 205 198 0 +.592309401076758 0 .1 0 -1 0 0 0 -1 14 203 181 206
 ?108 200 207 4 201 -0 0 108 200 18 50 205 196 0 108 208 201 0 +.59 -.004 .1 .86
6025403784441 -.5 0 .5 .866025403784441 0 14 108 179 209 ?114 203 104 4 205 -0 0
 114 203 18 50 208 195 0 114 210 205 0 +.587690598923242 0 .1 -.866025403784441
 -.5 0 .5 -.866025403784441 0 14 114 177 211 ?212 108 59 4 208 -0 0 212 108 18 5
0 210 194 0 212 213 208 0 +0 0 .1 0 -1 0 0 0 -1 14 212 175 214 ?98 114 67 4 210
 -0 0 98 114 18 50 213 143 0 163 215 210 0 +0 0 0 0 0 1 1 0 0 14 163 91 216 ?0 9
8 160 4 213 -0 0 0 98 18 50 215 2 0 98 0 213 0 +0 0 .1 0 0 1 1 0 0 14 98 1 217 ?
163 212 24 4 215 +0 0 163 212 18 81 1 217 334 189 98 218 0 216 0 219 80 255 1 18
9 220 221 9000 1 1 1 1 1 1 1 1 0 FFFFTFTFFFFFFF1 81 1 218 295 222 98 0 217 223 2
24 225 81 1 216 333 189 163 224 0 214 217 226 82 255 1 219 -1063124890 81 1 224
 296 222 163 0 216 218 0 227 81 1 214 332 189 212 223 0 211 216 228 82 1 226 -10
50410906 81 1 223 294 222 212 0 214 229 218 230 81 1 211 331 189 114 229 0 209 2
14 231 82 1 228 -1048313754 81 1 229 293 222 114 0 211 232 223 233 81 1 209 330
 189 108 232 0 206 211 234 82 1 231 -1048051610 81 1 232 292 222 108 0 209 235 2
29 236 81 1 206 329 189 203 235 0 202 209 237 82 1 234 -1047789466 81 1 235 291
 222 203 0 206 238 232 239 81 1 202 328 189 200 238 0 199 206 240 82 1 237 -1047
527322 81 1 238 290 222 200 0 202 241 235 242 81 1 199 327 189 172 241 0 197 202
 243 82 1 240 -1047265178 81 1 241 289 222 172 0 199 244 238 245 81 1 197 326 18
9 168 244 0 194 199 246 82 1 243 -1047003034 81 1 244 288 222 168 0 197 247 241
 248 81 1 194 325 189 12 249 0 191 197 250 82 1 246 -1046740890 81 1 249 285 222
 12 0 194 0 190 251 81 1 191 324 189 157 247 0 188 194 252 82 1 250 -1045954458
 81 1 247 287 222 157 0 191 190 244 253 82 1 252 -1046478746 80 1 222 0 254 8001
 0 0 0 0 3 5 0 0 0 FFFFTFTFFFFFFF2 81 1 190 286 222 187 0 188 249 247 255 83 255
 3 253 .752941176470588 .752941176470588 .752941176470588 83 3 255 .752941176470
588 .752941176470588 .752941176470588 79 255 15 254 SDL/TYSA_COLOUR83 3 251 .890
196078431373 .6 0 83 3 248 .752941176470588 .752941176470588 .752941176470588 83
 3 245 .752941176470588 .752941176470588 .752941176470588 83 3 242 .752941176470
588 .752941176470588 .752941176470588 83 3 239 .752941176470588 .752941176470588
 .752941176470588 83 3 236 .752941176470588 .752941176470588 .752941176470588 83
 3 233 .752941176470588 .752941176470588 .752941176470588 83 3 230 .752941176470
588 .752941176470588 .752941176470588 83 3 227 .752941176470588 .752941176470588
 .752941176470588 83 3 225 .752941176470588 .752941176470588 .752941176470588 79
 14 221 SWEntUnchanged15 67 174 0 65 212 0 15 207 180 0 54 203 0 17 54 0 207 103
 144 52 256 133 0 105 +17 103 0 207 101 54 92 105 111 0 95 -17 144 0 207 54 101
 49 257 142 0 256 +17 256 0 160 165 109 49 54 133 0 0 -17 105 0 104 56 95 52 103
 111 0 109 +17 109 0 160 256 62 52 56 110 0 0 -17 62 0 160 109 68 55 58 63 0 0 -
17 68 0 160 62 162 57 65 69 0 0 -17 162 0 160 68 36 16 122 120 0 0 -17 165 0 160
 164 256 46 51 131 0 0 -17 51 0 204 257 147 49 165 131 0 144 +15 204 182 0 51 20
0 0 17 257 0 204 175 51 89 144 142 0 101 -17 147 0 204 51 175 46 173 145 0 165 +
17 175 0 204 147 257 86 91 176 0 0 -17 91 0 24 93 88 89 175 176 0 257 +17 101 0
 207 144 103 89 93 102 0 0 -82 1 192 -1046216602 17 70 0 186 122 184 16 29 116 0
 162 +17 29 0 67 27 65 10 70 116 0 184 -17 27 0 67 64 29 22 21 28 0 0 -17 64 0 6
7 65 27 57 60 112 0 68 +17 82 0 24 85 76 78 155 159 0 158 +17 85 0 24 88 82 83 1
69 177 0 167 +17 158 0 154 155 42 78 152 151 0 169 -17 169 0 166 152 167 78 85 1
77 0 0 -19 13 215 0 1 0 8 4 S0 74 4 CI16 index_map_offset0 0 1 dCCZ20 11 2 0 0 2
17 224 0 0 0 0 0 0 0 0 0 0 0 0 0 0 0 0 0 0 1 0 
