**ABCDEFGHIJKLMNOPQRSTUVWXYZabcdefghijklmnopqrstuvwxyz**************************
**PARASOLID !"#$%&'()*+,-./:;<=>?@[\]^_`{|}~0123456789**************************
**PART1;
MC=AMD64;
MC_MODEL=Intel64 Family 6 Model 78 Stepping 3, GenuineIntel;
MC_ID=unknown;
OS=Windows_NT;
OS_RELEASE=unknown;
FRU=Parasolid Version 30.0, build 226,  7-26-2017;
APPL=SOLIDWORKS 2018-2017284;
SITE=;
USER=unknown;
FORMAT=text;
GUISE=transmit;
KEY=9;
FILE=9.x_t;
DATE=Sun Jan  5 22:40:09 2020;
**PART2;
SCH=SCH_3000226_30000;
USFLD_SIZE=0;
**PART3;
**END_OF_HEADER*****************************************************************
T51 : TRANSMIT FILE created by modeller version 300022623 SCH_3000226_30000_1300
6205 0 12 33 CCCCCCI4 mesh1006 0 I8 polyline1008 0 CCCCCCCDI5 owner1040 0 CCCCCC
I13 boundary_mesh1006 0 I17 boundary_polyline1008 0 CCCA16 index_map_offset0 0 1
 dA9 index_map82 0 A17 node_id_index_map82 0 A20 schema_embedding_map82 0 A5 chi
ld12 0 A14 lowest_node_id0 0 1 dZ1 414 2 3 0 0 0 0 0 0 1e3 1e-8 0 4 0 1 0 1 1 5
 6 7 8 0 0 9 10 11 0 0 0 0 0 0 81 255 2 2 298 12 1 0 0 0 0 13 0 70 11 CI9 list_t
ype0 0 1 uI10 notransmit0 0 1 lCCCDCCDI12 finger_index0 0 1 dI12 finger_block101
2 0 CZ3 0 4 T1 0 0 3 20 1 14 14 13 255 5 214 0 1 0 15 0 0 16 0 50 255 6 203 0 15
 17 0 0 +0 0 .1 1 1224646799147374e-31 0 -1224646799147374e-31 1 0 30 255 7 213
 0 10 18 0 0 +1224646799147374e-33 -.01 .1 0 0 -1 29 255 8 154 0 19 20 0 0 0 0 1
9 8 CCCCCCCA5 owner12 0 Z9 64 0 1 16 0 21 V0 16 255 10 173 0 ?22 0 23 7 0 0 1 18
 255 11 61 0 24 0 25 26 ?1 17 255 24 0 27 28 29 11 30 31 0 32 +18 25 58 0 29 11
 33 34 ?1 29 26 63 0 11 34 35 0 0 .1 29 34 60 0 25 36 26 .58042264973081 0 .1 29
 35 163 0 37 26 38 1224646799147374e-33 -.01 0 18 37 142 0 39 40 0 35 ?1 29 38 1
62 0 40 35 41 1 -.01 0 18 40 141 0 42 43 37 38 ?1 29 41 161 0 43 38 44 1 0 0 18
 43 140 0 45 46 40 41 ?1 29 44 160 0 46 41 47 .69957735026919 0 0 18 46 139 0 48
 49 43 44 ?1 29 47 159 0 49 44 50 .699 -.001 0 18 49 138 0 51 52 46 47 ?1 29 50
 158 0 52 47 53 .69842264973081 0 0 18 52 137 0 54 55 49 50 ?1 29 53 157 0 55 50
 56 .58157735026919 0 0 18 55 136 0 57 58 52 53 ?1 29 56 156 0 58 53 20 .581 -.0
01 0 18 58 135 0 59 60 55 56 ?1 29 20 155 0 60 56 8 .58042264973081 0 0 18 60 13
4 0 61 19 58 20 ?1 17 61 0 62 63 64 60 65 66 0 67 +18 19 133 0 68 69 60 8 ?1 17
 68 0 70 32 67 19 71 72 0 73 +18 69 34 0 74 75 19 76 ?1 17 74 0 77 22 78 69 79 8
0 0 28 -18 75 37 0 79 81 69 82 ?1 29 76 36 0 69 0 82 1224646799147374e-33 -.01 .
1 29 82 39 0 75 76 83 1 -.01 .1 29 83 42 0 81 82 84 1 0 .1 18 81 40 0 85 86 75 8
3 ?1 29 84 45 0 86 83 87 .69957735026919 0 .1 18 86 43 0 88 89 81 84 ?1 29 87 48
 0 89 84 90 .699 -.001 .1 18 89 46 0 91 92 86 87 ?1 29 90 51 0 92 87 93 .6984226
4973081 0 .1 18 92 49 0 94 95 89 90 ?1 29 93 54 0 95 90 36 .58157735026919 0 .1
 18 95 52 0 96 33 92 93 ?1 29 36 57 0 33 93 34 .581 -.001 .1 18 33 55 0 97 25 95
 36 ?1 17 97 0 27 29 96 33 98 99 0 100 +15 255 27 3 0 28 101 0 17 29 0 27 24 97
 25 102 103 0 63 +17 96 0 27 97 94 95 104 105 0 106 +17 98 0 107 108 100 95 97 9
9 0 0 -16 99 25 0 ?97 103 105 109 0 0 1 17 100 0 107 98 59 33 64 110 0 102 -15 1
07 178 0 59 111 0 17 59 0 107 100 108 58 112 113 0 64 +17 64 0 62 61 102 58 100
 110 0 65 +16 110 166 0 ?64 114 115 116 0 0 1 17 102 0 62 64 63 33 29 103 0 0 -1
5 62 176 0 61 117 0 17 63 0 62 102 61 25 67 115 0 30 -16 103 28 0 ?29 31 99 118
 0 0 1 16 31 31 0 ?24 119 103 120 0 0 1 30 118 29 0 103 109 120 0 +.580422649730
81 0 .1 -.499999999999978 .866025403784452 0 30 109 26 0 99 121 118 0 +.581 -.00
1 .1 -.499999999999978 -.866025403784452 0 30 120 32 0 31 118 122 0 +0 0 .1 -1 0
 0 30 122 153 0 123 120 124 0 +0 0 0 1224646799147374e-31 -1 0 16 123 129 0 ?125
 126 0 122 0 0 1 30 124 152 0 126 122 127 0 +1224646799147374e-33 -.01 0 1 69388
9390390723e-32 0 16 126 125 0 ?42 128 123 124 0 0 1 30 127 151 0 128 124 129 0 +
1 0 0 0 1 0 16 128 121 0 ?45 130 126 127 0 0 1 30 129 150 0 130 127 131 0 +.6995
7735026919 0 0 -1 0 0 16 130 117 0 ?48 132 128 129 0 0 1 30 131 149 0 132 129 13
3 0 +.699 -.001 0 -.499999999999978 -.866025403784452 0 16 132 113 0 ?51 134 130
 131 0 0 1 30 133 148 0 134 131 135 0 +.69842264973081 0 0 -.499999999999978 .86
6025403784452 0 16 134 109 0 ?54 136 132 133 0 0 1 30 135 147 0 136 133 137 0 +.
58157735026919 0 0 -1 0 0 16 136 105 0 ?57 113 134 135 0 0 1 30 137 146 0 113 13
5 138 0 +.581 -.001 0 -.499999999999978 -.866025403784452 0 16 113 101 0 ?59 66
 136 137 0 0 1 30 138 145 0 66 137 139 0 +.58042264973081 0 0 -.499999999999978
 .866025403784452 0 16 66 97 0 ?61 72 113 138 0 0 1 30 139 144 0 72 138 140 0 +0
 0 0 -1 0 0 16 72 93 0 ?68 141 66 139 0 0 1 30 140 204 0 119 139 142 0 +0 0 .1 0
 0 -1 16 119 164 0 ?73 115 31 140 0 0 1 30 142 205 0 115 140 116 0 +.58042264973
081 0 .1 0 0 -1 16 115 165 0 ?67 110 119 142 0 0 1 30 116 206 0 110 142 143 0 +.
581 -.001 .1 0 0 -1 30 143 207 0 114 116 144 0 +.58157735026919 0 .1 0 0 -1 16 1
14 167 0 ?108 145 110 143 0 0 1 30 144 208 0 145 143 146 0 +.69842264973081 0 .1
 0 0 -1 16 145 168 0 ?147 148 114 144 0 0 1 30 146 209 0 148 144 149 0 +.699 -.0
01 .1 0 0 -1 16 148 169 0 ?150 151 145 146 0 0 1 30 149 210 0 151 146 152 0 +.69
957735026919 0 .1 0 0 -1 16 151 170 0 ?153 154 148 149 0 0 1 30 152 211 0 154 14
9 18 0 +1 0 .1 0 0 -1 16 154 171 0 ?155 23 151 152 0 0 1 30 18 212 0 23 152 7 0
 +1 -.01 .1 0 0 -1 16 23 172 0 ?156 10 154 18 0 0 1 17 156 0 157 45 158 40 78 23
 0 159 +15 157 188 0 45 160 0 17 45 0 157 161 156 43 159 128 0 155 +17 158 0 157
 156 161 75 85 162 0 0 -17 78 0 77 74 42 75 156 23 0 158 -17 159 0 163 39 164 40
 45 128 0 0 -15 163 92 0 165 166 0 17 39 0 163 165 159 37 42 126 0 22 -17 164 0
 163 159 167 43 48 130 0 0 -17 167 0 163 164 168 46 51 132 0 0 -17 48 0 169 170
 155 46 164 130 0 153 +15 169 186 0 48 171 0 17 170 0 169 172 48 86 153 151 0 17
3 -17 155 0 169 48 172 43 161 154 0 164 +17 153 0 174 51 173 46 170 151 0 167 +1
5 174 184 0 51 175 0 17 51 0 174 176 153 49 167 132 0 150 +17 173 0 174 153 176
 86 91 177 0 0 -17 176 0 174 173 51 89 150 148 0 178 -17 91 0 27 94 88 89 173 17
7 0 176 +16 177 16 0 ?91 179 180 181 0 0 1 16 179 19 0 ?94 105 177 182 0 0 1 16
 180 13 0 ?88 177 162 183 0 0 1 30 181 17 0 177 183 182 0 +.699 -.001 .1 -.49999
9999999978 -.866025403784452 0 30 183 14 0 180 184 181 0 +.69957735026919 0 .1 -
1 0 0 30 182 20 0 179 181 121 0 +.69842264973081 0 .1 -.499999999999978 .8660254
03784452 0 30 121 23 0 105 182 109 0 +.58157735026919 0 .1 -1 0 0 16 105 22 0 ?9
6 99 179 121 0 0 1 30 184 11 0 162 185 183 0 +1 0 .1 0 1 0 16 162 10 0 ?85 180 8
0 184 0 0 1 30 185 8 0 80 186 184 0 +1224646799147374e-33 -.01 .1 1 693889390390
723e-32 0 16 80 7 0 ?79 162 141 185 0 0 1 30 186 5 0 141 0 185 0 +0 0 .1 1224646
799147374e-31 -1 0 16 141 4 0 ?28 80 72 186 0 0 1 17 28 0 27 79 24 69 187 141 0
 188 +17 79 0 27 85 28 75 74 80 0 78 +17 187 0 189 73 188 11 28 141 0 0 -17 188
 0 189 187 125 69 22 10 0 0 -15 189 192 0 125 15 0 17 125 0 189 188 73 37 165 12
3 0 0 +17 22 0 77 42 74 37 188 10 0 125 +15 77 190 0 42 190 0 17 42 0 77 78 22 4
0 39 126 0 156 +14 255 190 191 191 ?160 15 77 5 17 -0 0 160 15 21 81 1 191 403 1
92 190 193 0 0 194 195 14 160 189 194 ?171 190 157 5 196 -0 0 171 190 21 14 15 1
93 197 ?190 0 189 5 6 -0 0 190 0 21 50 17 202 0 190 196 6 0 +1224646799147374e-3
3 -.01 .1 -693889390390723e-32 1 0 -1 -693889390390723e-32 0 13 21 65 0 0 0 0 0
 0 9 15 50 196 201 0 160 198 17 0 +1 0 .1 -1 0 0 0 0 1 50 198 200 0 171 199 196
 0 +.69957735026919 0 .1 0 -1 0 0 0 -1 14 171 187 200 ?175 160 169 5 198 -0 0 17
5 160 21 50 199 199 0 175 201 198 0 +.699 -.001 .1 .866025403784452 -.4999999999
99978 0 .499999999999978 .866025403784452 0 14 175 185 202 ?203 171 174 5 199 -0
 0 203 171 21 50 201 198 0 203 204 199 0 +.69842264973081 0 .1 -.866025403784452
 -.499999999999978 0 .499999999999978 -.866025403784452 0 14 203 183 205 ?206 17
5 207 5 201 -0 0 206 175 21 50 204 197 0 206 208 201 0 +.58157735026919 0 .1 0 -
1 0 0 0 -1 14 206 181 209 ?111 203 210 5 204 -0 0 111 203 21 50 208 196 0 111 21
1 204 0 +.581 -.001 .1 .866025403784452 -.499999999999978 0 .499999999999978 .86
6025403784452 0 14 111 179 212 ?117 206 107 5 208 -0 0 117 206 21 50 211 195 0 1
17 213 208 0 +.58042264973081 0 .1 -.866025403784452 -.499999999999978 0 .499999
999999978 -.866025403784452 0 14 117 177 214 ?215 111 62 5 211 -0 0 215 111 21 5
0 213 194 0 215 216 211 0 +0 0 .1 0 -1 0 0 0 -1 14 215 175 217 ?101 117 70 5 213
 -0 0 101 117 21 50 216 143 0 166 218 213 0 +0 0 0 0 0 1 1 0 0 14 166 91 219 ?0
 101 163 5 216 -0 0 0 101 21 50 218 2 0 101 0 216 0 +0 0 .1 0 0 1 1 0 0 14 101 1
 220 ?166 215 27 5 218 +0 0 166 215 21 81 1 220 414 192 101 221 0 219 0 222 80 2
55 1 192 223 224 9000 1 1 1 1 1 1 1 1 0 FFFFTFTFFFFFFF1 81 1 221 375 225 101 0 2
20 226 227 228 81 1 219 413 192 166 227 0 217 220 229 82 255 1 222 1529938025 81
 1 227 376 225 166 0 219 221 0 230 81 1 217 412 192 215 226 0 214 219 231 82 1 2
29 1542652009 81 1 226 374 225 215 0 217 232 221 233 81 1 214 411 192 117 232 0
 212 217 234 82 1 231 1544749161 81 1 232 373 225 117 0 214 235 226 236 81 1 212
 410 192 111 235 0 209 214 237 82 1 234 1545011305 81 1 235 372 225 111 0 212 23
8 232 239 81 1 209 409 192 206 238 0 205 212 240 82 1 237 1545273449 81 1 238 37
1 225 206 0 209 241 235 242 81 1 205 408 192 203 241 0 202 209 243 82 1 240 1545
535593 81 1 241 370 225 203 0 205 244 238 245 81 1 202 407 192 175 244 0 200 205
 246 82 1 243 1545797737 81 1 244 369 225 175 0 202 247 241 248 81 1 200 406 192
 171 247 0 197 202 249 82 1 246 1546059881 81 1 247 368 225 171 0 200 250 244 25
1 81 1 197 405 192 15 252 0 194 200 253 82 1 249 1546322025 81 1 252 365 225 15
 0 197 0 193 254 81 1 194 404 192 160 250 0 191 197 255 82 1 253 1547108457 81 1
 250 367 225 160 0 194 193 247 256 82 1 255 1546584169 80 1 225 0 257 8001 0 0 0
 0 3 5 0 0 0 FFFFTFTFFFFFFF2 81 1 193 366 225 190 0 191 252 250 258 83 255 3 256
 .752941176470588 .752941176470588 .752941176470588 83 3 258 .752941176470588 .7
52941176470588 .752941176470588 79 255 15 257 SDL/TYSA_COLOUR83 3 254 .890196078
431373 .6 0 83 3 251 .752941176470588 .752941176470588 .752941176470588 83 3 248
 .752941176470588 .752941176470588 .752941176470588 83 3 245 .752941176470588 .7
52941176470588 .752941176470588 83 3 242 .752941176470588 .752941176470588 .7529
41176470588 83 3 239 .752941176470588 .752941176470588 .752941176470588 83 3 236
 .752941176470588 .752941176470588 .752941176470588 83 3 233 .752941176470588 .7
52941176470588 .752941176470588 83 3 230 .752941176470588 .752941176470588 .7529
41176470588 83 3 228 .752941176470588 .752941176470588 .752941176470588 79 14 22
4 SWEntUnchanged15 70 174 0 68 215 0 15 210 180 0 57 206 0 17 57 0 210 106 147 5
5 259 136 0 108 +17 106 0 210 104 57 95 108 114 0 98 -17 147 0 210 57 104 52 260
 145 0 259 +17 259 0 163 168 112 52 57 136 0 0 -17 108 0 107 59 98 55 106 114 0
 112 +17 112 0 163 259 65 55 59 113 0 0 -17 65 0 163 112 71 58 61 66 0 0 -17 71
 0 163 65 165 60 68 72 0 0 -17 165 0 163 71 39 19 125 123 0 0 -17 168 0 163 167
 259 49 54 134 0 0 -17 54 0 207 260 150 52 168 134 0 147 +15 207 182 0 54 203 0
 17 260 0 207 178 54 92 147 145 0 104 -17 150 0 207 54 178 49 176 148 0 168 +17
 178 0 207 150 260 89 94 179 0 0 -17 94 0 27 96 91 92 178 179 0 260 +17 104 0 21
0 147 106 92 96 105 0 0 -82 1 195 1546846313 17 73 0 189 125 187 19 32 119 0 165
 +17 32 0 70 30 68 11 73 119 0 187 -17 30 0 70 67 32 25 24 31 0 0 -17 67 0 70 68
 30 60 63 115 0 71 +17 85 0 27 88 79 81 158 162 0 161 +17 88 0 27 91 85 86 172 1
80 0 170 +17 161 0 157 158 45 81 155 154 0 172 -17 172 0 169 155 170 81 88 180 0
 0 -19 16 215 0 1 0 9 5 S0 74 4 CI16 index_map_offset0 0 1 dCCZ20 14 3 0 0 220 2
 227 0 0 0 0 0 0 0 0 0 0 0 0 0 0 0 0 0 80 2 12 261 262 8004 0 0 0 0 3 5 0 0 0 FF
TFFFFFFFFFFF2 3 83 1 13 1 79 16 262 SDL/TYSA_DENSITY1 0 
